# xmcd
#
# Track frame offsets:
#	150
#	13473
#	27794
#	44312
#	58367
#	76512
#	94231
#	107497
#	119242
#	131223
#	146857
#	160142
#	173728
#
# Disc length: 2452 seconds
#
# Revision: 0
# Processed by: cddbd v1.4PL0 Copyright (c) Steve Scherf et al.
# Submitted via: EasyCDDAExtractor 4.6.9.1
#
DISCID=b709920d
DTITLE=Nick Curran - Fixin' Your Head
DYEAR=1900
DGENRE=Blues
TTITLE0=Women And Cadillacs
TTITLE1=Boogie With My Baby
TTITLE2=Just Love Me Baby
TTITLE3=I Want To Love You
TTITLE4=Good Rockin' Man
TTITLE5=Lonely Nights
TTITLE6=Loose Lip Mama
TTITLE7=It's My Life, Baby
TTITLE8=She's Mine
TTITLE9=Straighten Up
TTITLE10=Do You Wanna Be My Baby?
TTITLE11=I'm Waiting For Your Call
TTITLE12=Get Rich Quick
EXTD=
EXTT0=
EXTT1=
EXTT2=
EXTT3=
EXTT4=
EXTT5=
EXTT6=
EXTT7=
EXTT8=
EXTT9=
EXTT10=
EXTT11=
EXTT12=
PLAYORDER=
